<svg class="svg-icon" style="width: 1em;height: 1em;vertical-align: middle;fill: currentColor;overflow: hidden;" viewBox="0 0 1024 1024" version="1.1" xmlns="http://www.w3.org/2000/svg"><path d="M768 85.333333H256a42.666667 42.666667 0 0 0-42.666667 42.666667v768a42.666667 42.666667 0 0 0 42.666667 42.666667h512a42.666667 42.666667 0 0 0 42.666667-42.666667V128a42.666667 42.666667 0 0 0-42.666667-42.666667z m0 810.666667H256V128h512z"  /><path d="M384 298.666667m-21.333333 0a21.333333 21.333333 0 1 0 42.666666 0 21.333333 21.333333 0 1 0-42.666666 0Z"  /><path d="M384 384a85.333333 85.333333 0 1 0-85.333333-85.333333 85.333333 85.333333 0 0 0 85.333333 85.333333z m0-128a42.666667 42.666667 0 1 1-42.666667 42.666667 42.666667 42.666667 0 0 1 42.666667-42.666667z"  /><path d="M512 512m-21.333333 0a21.333333 21.333333 0 1 0 42.666666 0 21.333333 21.333333 0 1 0-42.666666 0Z"  /><path d="M426.666667 512a85.333333 85.333333 0 1 0 85.333333-85.333333 85.333333 85.333333 0 0 0-85.333333 85.333333z m85.333333-42.666667a42.666667 42.666667 0 1 1-42.666667 42.666667 42.666667 42.666667 0 0 1 42.666667-42.666667z"  /><path d="M640 725.333333m-21.333333 0a21.333333 21.333333 0 1 0 42.666666 0 21.333333 21.333333 0 1 0-42.666666 0Z"  /><path d="M554.666667 725.333333a85.333333 85.333333 0 1 0 85.333333-85.333333 85.333333 85.333333 0 0 0-85.333333 85.333333z m85.333333-42.666666a42.666667 42.666667 0 1 1-42.666667 42.666666 42.666667 42.666667 0 0 1 42.666667-42.666666z"  /></svg>